# xmcd
#
# Track frame offsets: 
#        150
#        25169
#        43736
#        61770
#        79633
#        100025
#        119977
#        133723
#        148416
#        167300
#        184463
#        200401
#        223313
#
# Disc length: 3260 seconds
#
# Revision: 0
# Processed by: cddbd v1.5.2PL0 Copyright (c) Steve Scherf et al.
# Submitted via: ExactAudioCopy v0.99pb4
#
DISCID=c40cba0d
DTITLE=Interstate Cowboy - There's a Road
DYEAR=2007
DGENRE=Country
TTITLE0=I Got Nothin'
TTITLE1=There's a Road
TTITLE2=Everytime She Makes a Mistake
TTITLE3=No Place Like Home
TTITLE4=Rio Grande Lament
TTITLE5=Just for Some
TTITLE6=They Always Go for the Heart
TTITLE7=Lady Be Good
TTITLE8=Frankie and Johnny
TTITLE9=Old Cowhand
TTITLE10=The American Way
TTITLE11=The Sky is Falling
TTITLE12=Take the A Train
EXTD=
EXTT0=
EXTT1=
EXTT2=
EXTT3=
EXTT4=
EXTT5=
EXTT6=
EXTT7=
EXTT8=
EXTT9=
EXTT10=
EXTT11=
EXTT12=
PLAYORDER=
